<?xml version="1.0" encoding="UTF-8"?>
<svg id="_Слой_1" data-name="Слой 1" xmlns="http://www.w3.org/2000/svg" xmlns:xlink="http://www.w3.org/1999/xlink" viewBox="0 0 340.09 252.29">
  <defs>
    <style>
      .cls-1 {
        fill: #fff;
      }

      .cls-2 {
        fill: url(#_Безымянный_градиент_43);
      }

      .cls-3 {
        fill: #51d6dd;
      }
    </style>
    <linearGradient id="_Безымянный_градиент_43" data-name="Безымянный градиент 43" x1="66.92" y1="314.14" x2="241.53" y2="139.53" gradientUnits="userSpaceOnUse">
      <stop offset=".17" stop-color="#232297"/>
      <stop offset=".51" stop-color="#2a58aa"/>
      <stop offset=".96" stop-color="#349cc3"/>
      <stop offset="1" stop-color="#3499c2"/>
    </linearGradient>
  </defs>
  <path class="cls-2" d="M169.69.04c-22.73,34.12-45.53,68.2-68.38,102.25C67.67,152.38,33.9,202.39,0,252.29c13.54-2.7,24.48-4.83,31.66-6.21,16.32-3.15,32.48-7.14,48.85-10.04,12.31-2.19,15.87-2.51,21.11-5.7,8.04-4.91,10.42-10.72,19.06-24,3.82-5.86,9.98-13.98,22.3-30.21,19.52-25.72,23.12-27.28,26.48-27.3,6.16-.04,12.67,8.28,25.43,24.92,6.72,8.76,11.59,15.85,23.32,32.6,13.47,19.23,15,21.23,18.78,23.9,6.14,4.34,9.23,4.1,34.15,9.21,26.58,5.45,29.38,7.02,48.51,10.04,8.46,1.34,15.52,2.24,20.43,2.81C283.29,168.21,226.49,84.12,169.69.04Z"/>
  <path class="cls-3" d="M169.77,0c22.76,33.69,45.51,67.38,68.27,101.06l-17.9-18.13c.21,9.04.43,18.07.64,27.11-8.38-4.53-18-10.54-27.98-18.51-7.97-6.37-14.63-12.75-20.11-18.62-.52-.47-1.24-1.23-1.8-2.33,0,0-.68-1.32-.85-2.94-.25-2.35-.36-29.95-.27-67.64Z"/>
  <path class="cls-1" d="M94.75,112.01c5.44-4.29,10.89-8.57,16.33-12.86-.64,11.45-1.28,22.89-1.91,34.34,12.4-13.7,24.79-27.4,37.19-41.11-9.11,5.63-18.21,11.26-27.32,16.89.43-8.78.85-17.56,1.28-26.34l-16.66,15.82"/>
  <path class="cls-1" d="M245.45,112.2c-5.56-4.48-11.13-8.95-16.69-13.43.64,11.45,1.28,22.89,1.91,34.34-12.4-13.7-24.79-27.4-37.19-41.11,9.11,5.63,18.21,11.26,27.32,16.89-.43-8.78-.85-17.56-1.28-26.34l18.51,18.51"/>
</svg>